<?xml version="1.0" encoding="UTF-8"?>
<!--Generator: Apple Native CoreSVG 175.5-->
<!DOCTYPE svg
PUBLIC "-//W3C//DTD SVG 1.1//EN"
       "http://www.w3.org/Graphics/SVG/1.1/DTD/svg11.dtd">
<svg version="1.1" xmlns="http://www.w3.org/2000/svg" xmlns:xlink="http://www.w3.org/1999/xlink" width="16.3396" height="16.3566">
 <g>
  <rect height="16.3566" opacity="0" width="16.3396" x="0" y="0"/>
  <path d="M0 8.17415C0 8.77288 0.495451 9.27005 1.0959 9.27005L7.07824 9.27005L7.07824 15.2524C7.07824 15.8442 7.57542 16.3483 8.17415 16.3483C8.77289 16.3483 9.26137 15.8442 9.26137 15.2524L9.26137 9.27005L15.2524 9.27005C15.8442 9.27005 16.3396 8.77288 16.3396 8.17415C16.3396 7.57542 15.8442 7.07825 15.2524 7.07825L9.26137 7.07825L9.26137 1.0959C9.26137 0.504136 8.77289-1.77636e-15 8.17415-1.77636e-15C7.57542-1.77636e-15 7.07824 0.504136 7.07824 1.0959L7.07824 7.07825L1.0959 7.07825C0.495451 7.07825 0 7.57542 0 8.17415Z" fill="#ffffff"/>
 </g>
</svg>
