<?xml version="1.0" encoding="UTF-8"?>
<!--Generator: Apple Native CoreSVG 175.5-->
<!DOCTYPE svg
PUBLIC "-//W3C//DTD SVG 1.1//EN"
       "http://www.w3.org/Graphics/SVG/1.1/DTD/svg11.dtd">
<svg version="1.1" xmlns="http://www.w3.org/2000/svg" xmlns:xlink="http://www.w3.org/1999/xlink" width="16.4309" height="17.876">
 <g>
  <rect height="17.876" opacity="0" width="16.4309" x="0" y="0"/>
  <path d="M1.66243 17.876L14.7582 17.876C15.8041 17.876 16.4309 17.386 16.4309 16.5807C16.4309 14.0596 13.2785 10.5811 8.21136 10.5811C3.15453 10.5811 0 14.0596 0 16.5807C0 17.386 0.628981 17.876 1.66243 17.876ZM8.21557 8.8344C10.3174 8.8344 12.1237 6.96124 12.1237 4.51911C12.1237 2.11473 10.3111 0.324175 8.21557 0.324175C6.13038 0.324175 4.3115 2.15615 4.31572 4.5398C4.31572 6.96124 6.12405 8.8344 8.21557 8.8344Z" fill="#ffffff" fill-opacity="0.85"/>
 </g>
</svg>
